<svg xmlns="http://www.w3.org/2000/svg" width="1353.039" height="236.642" viewBox="0 0 1353.039 236.642">
  <g id="hachette" transform="translate(-60.673 -67.342)">
    <g id="Group_1" data-name="Group 1">
      <path id="Path_1" data-name="Path 1" d="M478.452,302.009v-99.5c0-29.376-15.33-44.83-41.367-44.83s-42.192,16.033-42.192,44.83v99.5H374.024V67.342h20.869v92.131c11.787-13.523,27.444-20.287,45.922-20.287,36.492,0,58.505,23.3,58.505,59.8V302.009Z" fill="#fff"/>
      <path id="Path_2" data-name="Path 2" d="M631.021,194.42c0-24.343-12.045-37.058-42.828-37.058-21.457,0-32.355,5.284-42.083,19.149l-14.583-13.018c14.07-18.7,30.8-24.307,56.982-24.307,42.811,0,63.382,18.945,63.382,53.348V302.009H631.182v-15.66c-13.194,13.193-25.478,17.635-47.493,17.635-22.763,0-36.1-4.205-46.321-14.7-7.568-7.92-11.933-19.811-11.933-32.266,0-28.84,20.444-46.5,55.927-46.5h28.672v16.428H584.056c-25.524,0-37.992,10.348-37.992,29.922s12.058,29.1,38.9,29.1c14.1,0,26.908-1.242,37.56-11.559,5.692-5.445,8.5-14.853,8.5-28.966Z" fill="#fff"/>
      <path id="Path_3" data-name="Path 3" d="M753.92,303.984c-41.821,0-70.985-29.07-70.985-82.44s29.164-82.358,70.985-82.358c22.07,0,36.218,5.843,53.034,24.15l-14.318,13.412c-12.8-14.284-22.787-19.067-38.716-19.067-16.6,0-30.48,6.769-39.479,19.578C706.69,188.238,703.8,200.6,703.8,221.544s2.887,33.391,10.638,44.368c9,12.808,22.875,19.582,39.479,19.582,15.929,0,25.918-4.786,38.716-19.069l14.318,13.33C790.138,298.064,775.99,303.984,753.92,303.984Z" fill="#fff"/>
      <path id="Path_4" data-name="Path 4" d="M930.416,302.009v-99.5c0-29.376-15.328-44.83-41.363-44.83s-42.194,16.033-42.194,44.83v99.5H825.991V67.342h20.868v92.131c11.782-13.523,27.445-20.287,45.923-20.287,36.492,0,58.505,23.3,58.505,59.8V302.009Z" fill="#fff"/>
      <path id="Path_5" data-name="Path 5" d="M1022.069,210.5v16.459h88.939v-9.611c0-48.205-24.536-78.166-65.357-78.166-40.6,0-65.36,30.559-65.36,82.358,0,55.61,26.038,82.44,69.4,82.44,27.079,0,42.23-8.4,58.617-24.785l-14.671-12.354c-13.117,13.113-24.255,18.635-43.038,18.635-25.567,0-40.949-13.084-46.884-36.728-2.052-7.907-2.768-16.212-2.768-27.286,0-18.726.779-28.344,5.479-38.922,7.539-16.925,22.761-25.342,39.23-25.342,17.57,0,32.682,9.82,39.2,25.342,3.765,9.257,4.762,14.188,5.349,27.96Z" fill="#fff"/>
      <path id="Path_6" data-name="Path 6" d="M1181.342,302.009c-26.558,0-40.06-18.662-40.06-42.722v-101.7h-21.111V141.882h21.111V91.126h20.869v50.756h30.219v15.707h-30.219V259.138c0,15.447,7.181,24.693,22.955,24.693h10.935v18.178Z" fill="#fff"/>
      <path id="Path_7" data-name="Path 7" d="M1263.636,302.009c-26.562,0-40.062-18.662-40.062-42.722v-101.7h-21.117V141.882h21.117V91.126h20.867v50.756h30.219v15.707h-30.219V259.138c0,15.447,7.183,24.693,22.956,24.693h10.936v18.178Z" fill="#fff"/>
      <path id="Path_8" data-name="Path 8" d="M1324.773,210.5v16.459h88.939v-9.611c0-48.205-24.536-78.166-65.358-78.166-40.594,0-65.359,30.559-65.359,82.358,0,55.61,26.039,82.44,69.394,82.44,27.082,0,42.23-8.4,58.619-24.785l-14.672-12.354c-13.116,13.113-24.253,18.635-43.039,18.635-25.565,0-40.948-13.084-46.883-36.728-2.053-7.907-2.769-16.212-2.769-27.286,0-18.726.779-28.344,5.482-38.922,7.538-16.925,22.761-25.342,39.227-25.342,17.57,0,32.684,9.82,39.209,25.342,3.761,9.257,4.757,14.188,5.348,27.96Z" fill="#fff"/>
    </g>
    <g id="Group_3" data-name="Group 3">
      <g id="Group_2" data-name="Group 2">
        <path id="Path_9" data-name="Path 9" d="M205.776,67.342V84.353h72.551V285H222.79V212.445H133.226v17.014h72.55v72.551H295.34V67.342Z" fill="#fff"/>
        <path id="Path_10" data-name="Path 10" d="M77.686,84.353h55.54v72.553H222.79V139.893H150.239V67.342H60.673V302.009h89.566V285H77.686Z" fill="#fff"/>
      </g>
    </g>
  </g>
</svg>
