<?xml version="1.0" standalone="no"?>
<!DOCTYPE svg PUBLIC "-//W3C//DTD SVG 20010904//EN"
 "http://www.w3.org/TR/2001/REC-SVG-20010904/DTD/svg10.dtd">
<svg version="1.0" xmlns="http://www.w3.org/2000/svg"
 width="400.000000pt" height="400.000000pt" viewBox="0 0 400.000000 400.000000"
 preserveAspectRatio="xMidYMid meet">
<metadata>
Created by potrace 1.14, written by Peter Selinger 2001-2017
</metadata>
<g transform="translate(0.000000,400.000000) scale(0.100000,-0.100000)"
fill="#000000" stroke="none">
<path d="M1455 3000 c-3 -5 -28 -10 -55 -10 -47 0 -48 -1 -65 -42 -21 -53 -42
-103 -60 -143 -8 -16 -42 -95 -75 -175 -34 -80 -68 -158 -75 -175 -7 -16 -32
-75 -55 -130 -23 -55 -50 -118 -60 -140 -9 -22 -37 -86 -60 -142 -24 -56 -47
-100 -51 -97 -5 3 -6 -1 -4 -9 5 -11 -67 -190 -144 -359 -66 -145 -80 -187
-65 -199 7 -6 11 -15 8 -20 -3 -5 0 -8 8 -7 8 2 12 -5 10 -17 -2 -18 -2 -18 8
-2 6 9 16 17 22 17 6 0 5 -7 -3 -17 -11 -13 -11 -17 -1 -20 6 -3 10 -9 7 -13
-3 -5 4 -7 16 -5 15 3 19 0 15 -11 -3 -9 -2 -12 5 -9 6 4 8 13 5 21 -3 8 -1
14 5 14 6 0 7 5 3 12 -4 7 -3 8 4 4 7 -4 12 -2 12 5 0 7 7 4 15 -7 12 -15 16
-16 24 -5 5 8 14 10 21 6 8 -5 19 -1 28 11 11 14 13 15 9 3 -3 -9 0 -22 6 -28
8 -8 5 -9 -11 -6 -12 2 -27 7 -34 11 -7 4 -8 3 -4 -5 4 -7 2 -10 -5 -9 -7 2
-14 -6 -16 -17 -2 -15 -1 -16 5 -5 4 8 16 17 26 18 18 3 18 2 6 -15 -14 -17
-14 -17 5 -1 15 12 25 14 37 7 16 -9 17 -7 8 15 -9 25 2 46 15 27 3 -6 12 -8
20 -5 8 4 12 11 8 17 -3 5 -1 7 5 4 5 -4 9 -14 8 -22 -2 -17 -16 -33 -16 -18
0 5 -6 10 -14 10 -8 0 -12 -6 -9 -13 4 -10 22 -12 43 -4 3 1 9 2 14 1 5 -1 4
5 -4 13 -14 18 0 22 17 5 9 -9 11 -7 9 7 -2 11 -9 19 -16 19 -7 0 -15 7 -17
15 -3 9 -1 11 4 5 12 -15 41 -17 49 -4 4 8 3 9 -4 5 -8 -4 -12 0 -12 11 0 15
-2 16 -10 3 -6 -9 -10 -10 -10 -3 0 6 5 15 10 18 6 4 8 11 4 16 -3 5 -10 6
-16 3 -7 -4 -8 -2 -4 5 4 6 12 8 19 4 19 -12 57 -10 46 3 -13 15 1 26 18 13 7
-6 13 -7 13 -2 0 5 -11 16 -25 23 -18 10 -22 16 -13 21 16 10 17 39 3 58 -7
11 -7 13 2 8 6 -4 14 -3 18 3 4 6 11 8 16 4 6 -4 6 -11 -2 -20 -6 -8 -8 -14
-4 -14 4 0 -1 -12 -11 -27 -13 -20 -13 -25 -2 -16 8 7 18 9 22 5 4 -4 7 -2 6
3 -5 25 1 56 10 50 6 -3 10 -1 10 4 0 6 -4 11 -9 11 -16 0 -19 49 -4 70 8 11
11 24 8 30 -3 6 1 7 9 4 18 -7 22 -24 5 -24 -5 0 -7 -5 -3 -12 4 -6 3 -8 -3
-5 -17 11 -12 -42 6 -55 14 -11 14 -11 3 3 -13 17 -6 53 9 43 5 -3 6 2 3 10
-4 9 -1 16 6 16 9 0 10 3 1 13 -6 8 -7 18 -3 22 4 5 2 5 -5 1 -6 -3 -14 -2
-17 3 -4 5 1 8 10 7 9 -1 23 -13 31 -27 13 -22 12 -11 -3 26 -5 11 -1 14 12 9
14 -4 15 -3 6 4 -8 5 -24 8 -37 6 -18 -1 -22 2 -17 14 3 10 7 12 10 4 7 -21
25 -13 19 8 -3 11 -1 23 4 26 5 3 9 2 8 -3 -4 -24 3 -33 27 -31 26 3 58 28 35
28 -7 0 -9 5 -5 12 5 7 3 8 -6 3 -9 -5 -11 -4 -6 4 4 6 11 9 16 6 5 -3 12 1
17 9 7 12 10 12 20 0 8 -8 9 -15 3 -19 -6 -3 -10 -1 -10 5 0 6 -5 8 -11 4 -8
-4 -6 -10 6 -17 23 -12 39 11 22 32 -9 11 -9 13 0 8 6 -4 13 -3 15 1 1 5 13
-1 26 -13 17 -16 19 -22 8 -22 -8 0 -13 4 -10 9 3 4 1 8 -4 8 -5 0 -12 -9 -15
-20 -4 -16 -2 -18 13 -10 15 8 22 5 34 -12 9 -12 16 -18 16 -12 0 5 -5 15 -12
22 -14 14 -4 16 21 3 13 -8 17 -5 18 12 2 17 0 19 -7 7 -8 -13 -12 -13 -27 2
-14 15 -15 20 -4 30 7 7 12 9 11 3 -5 -26 0 -37 13 -27 18 16 39 -1 31 -24 -9
-24 -1 -16 16 15 6 13 8 21 2 17 -5 -3 -16 2 -23 12 -11 14 -11 15 0 5 7 -6
20 -9 27 -6 8 3 14 0 14 -7 0 -6 5 -8 12 -4 7 4 8 3 4 -5 -4 -6 -12 -9 -17 -6
-5 4 -9 1 -9 -5 0 -7 8 -9 21 -5 14 5 19 3 15 -3 -3 -6 -2 -13 3 -16 5 -4 8 2
7 11 -2 10 1 21 7 24 5 4 0 10 -11 13 -24 8 -36 32 -20 42 6 4 8 3 4 -4 -3 -6
7 -20 23 -31 18 -13 32 -17 36 -11 4 6 13 5 25 -2 10 -7 16 -16 14 -20 -3 -4
-1 -8 4 -8 5 0 14 11 20 25 6 14 17 25 24 24 10 0 10 -2 1 -6 -7 -2 -13 -9
-13 -14 0 -6 4 -7 10 -4 6 3 7 -1 3 -10 -4 -13 -7 -14 -14 -3 -6 9 -8 6 -6
-10 2 -28 14 -29 22 -1 6 19 8 19 30 5 20 -13 25 -13 35 -1 10 12 8 13 -9 10
-14 -3 -18 0 -14 12 4 10 8 11 13 3 4 -6 10 -11 14 -11 3 1 17 -6 31 -15 14
-9 29 -12 37 -8 7 5 21 7 30 6 9 -2 18 5 21 15 4 17 5 17 6 1 0 -10 6 -18 12
-18 5 0 7 -5 3 -11 -4 -8 -9 -8 -13 -1 -4 7 -12 8 -21 2 -13 -8 -13 -10 1 -10
8 0 20 -5 26 -11 14 -14 5 -42 -10 -32 -6 4 -7 1 -2 -7 6 -10 11 -9 21 5 10
14 11 22 3 32 -8 9 -8 13 0 13 6 0 12 -4 12 -10 3 -20 4 -25 13 -39 6 -9 5
-12 -2 -7 -6 3 -14 2 -17 -4 -4 -6 -3 -10 2 -9 26 4 43 -14 48 -51 0 -3 4 -11
8 -17 5 -7 5 -13 2 -13 -4 0 1 -7 9 -16 9 -8 14 -19 11 -24 -3 -4 1 -10 9 -13
7 -3 12 -18 11 -37 -1 -23 2 -30 12 -26 8 3 12 2 9 -3 -3 -5 3 -20 14 -33 21
-28 33 -75 20 -83 -4 -3 -11 0 -13 5 -4 7 -5 6 -3 0 3 -19 20 -14 31 8 5 12
15 24 22 26 7 3 2 -12 -12 -34 -17 -27 -21 -41 -13 -46 6 -4 8 -3 5 3 -4 6 3
19 15 29 12 11 18 13 14 7 -15 -26 -15 -52 0 -46 8 3 13 12 12 21 -2 8 4 17
12 19 11 3 12 2 2 -4 -9 -7 -4 -17 20 -39 17 -16 27 -22 22 -14 -5 8 -9 20 -9
25 -1 6 -7 9 -13 7 -10 -2 -10 3 -2 18 6 11 13 20 16 20 3 0 2 -5 -1 -10 -3
-5 -3 -15 1 -21 4 -8 9 -7 15 2 7 12 9 11 9 -1 1 -9 6 -5 15 10 13 25 14 24
11 -13 -3 -29 0 -35 9 -27 9 8 15 8 20 0 3 -6 11 -8 16 -4 5 3 7 10 4 15 -11
16 7 10 22 -8 8 -10 12 -13 9 -6 -9 17 12 27 29 13 9 -8 15 -8 20 0 3 6 11 7
17 4 7 -5 8 -2 4 5 -5 8 0 14 14 18 16 4 18 8 8 14 -18 12 -31 11 -23 -1 3 -5
0 -7 -8 -4 -8 3 -18 1 -22 -5 -3 -6 -1 -11 5 -11 6 0 8 -5 4 -11 -4 -8 -9 -7
-15 2 -13 21 -11 27 11 34 11 4 18 10 15 15 -5 8 13 25 28 25 15 0 1 45 -15
45 -6 0 -6 -6 1 -14 10 -11 8 -16 -9 -21 -12 -4 -24 -4 -27 -1 -4 3 1 6 10 6
10 0 17 4 17 9 0 13 -17 23 -23 14 -2 -5 -3 -3 -1 3 1 6 -2 16 -7 21 -6 6 1
20 18 38 23 23 24 26 6 16 -26 -13 -46 -15 -39 -2 4 5 1 11 -6 13 -7 3 -5 7 6
11 10 4 15 3 11 -3 -3 -6 -1 -10 4 -10 6 0 11 7 11 15 0 18 -1 18 -33 6 -18
-7 -24 -6 -24 5 0 8 5 14 11 13 23 -3 36 1 36 12 0 5 -4 8 -10 4 -5 -3 -16 8
-25 25 -10 19 -22 30 -30 27 -8 -4 -12 1 -10 11 3 21 -14 44 -27 36 -6 -4 -5
2 1 14 15 27 14 32 -4 32 -9 0 -15 6 -14 13 4 21 -12 47 -30 47 -10 0 -8 5 9
13 21 11 27 11 36 -1 9 -12 11 -12 11 2 0 9 -4 17 -9 17 -4 1 -11 2 -16 3 -4
0 -18 11 -31 23 -13 12 -29 20 -34 16 -6 -3 -7 -1 -4 4 6 10 -15 36 -24 30 -2
-1 1 3 8 9 9 8 7 13 -5 22 -14 9 -14 11 -1 6 10 -3 16 1 16 11 0 10 -6 14 -16
10 -8 -3 -12 -3 -8 1 4 5 -3 13 -15 20 -23 12 -23 12 4 11 14 -1 24 -6 20 -12
-3 -5 -2 -7 3 -3 4 4 15 2 24 -5 14 -11 15 -10 1 8 -8 11 -21 24 -27 28 -7 4
-13 15 -13 23 0 8 -4 13 -9 10 -4 -3 -7 17 -6 44 1 38 -1 47 -10 40 -6 -5 -16
-6 -21 -2 -4 4 -2 -1 5 -10 7 -10 10 -18 5 -18 -4 0 -3 -5 4 -12 7 -7 12 -16
12 -21 0 -12 -31 20 -34 36 -7 33 -27 68 -36 62 -5 -3 -10 -1 -10 4 0 6 5 11
11 11 5 0 8 4 4 9 -3 5 -1 12 4 16 6 3 8 -4 6 -15 -3 -13 0 -18 7 -14 7 5 8 2
3 -5 -6 -10 -3 -11 14 -2 25 14 27 19 7 17 -8 0 -15 4 -16 9 -1 6 -6 16 -12
23 -6 6 -7 12 -4 12 4 0 0 10 -8 21 -8 12 -12 29 -9 38 4 12 3 13 -5 3 -7 -11
-15 -8 -38 13 -16 15 -23 24 -16 20 6 -3 13 -1 13 4 1 6 2 16 3 21 0 6 8 15
15 20 10 6 1 7 -27 5 -23 -2 -40 1 -37 5 3 5 -1 11 -7 13 -10 4 -9 6 1 6 11 1
11 4 1 16 -7 9 -10 18 -7 22 4 3 2 12 -4 20 -6 7 -8 13 -4 13 4 0 2 7 -5 15
-7 8 -10 21 -7 29 3 8 -1 17 -10 21 -13 4 -14 8 -5 17 16 16 15 23 -5 43 -9 9
-17 29 -19 43 -1 15 -2 30 -3 35 -1 4 -6 6 -12 5 -6 -2 -14 3 -16 10 -3 6 0
12 6 12 6 0 11 5 11 11 0 8 -6 7 -17 -2 -15 -12 -16 -12 -10 4 4 12 3 16 -4
11 -7 -4 -9 0 -5 14 9 28 -9 36 -37 17 -20 -13 -24 -13 -24 -1 0 9 6 12 16 8
14 -5 14 -3 3 11 -12 14 -11 15 12 11 16 -3 26 0 26 7 0 7 -3 10 -6 6 -4 -3
-19 0 -34 8 -15 8 -30 12 -33 8 -4 -3 -1 6 6 20 6 14 15 23 19 21 5 -3 8 -1 8
3 0 5 -9 14 -20 21 -12 7 -18 17 -14 23 4 8 9 7 15 -2 6 -10 9 -10 9 -2 0 18
-21 27 -30 12 -5 -7 -7 -16 -5 -20 3 -3 -3 -14 -13 -22 -16 -15 -18 -15 -18 2
0 10 5 17 11 15 6 -3 11 5 12 17 2 27 22 50 37 42 6 -3 7 -2 3 3 -5 5 -13 10
-18 10 -5 1 -11 3 -14 4 -3 1 -8 3 -12 4 -18 3 -33 18 -28 27 6 8 -9 13 -29
10 -4 -1 -15 4 -24 11 -10 9 -13 9 -9 1 4 -6 3 -14 -3 -18 -9 -5 -14 6 -12 25
0 3 -15 4 -35 2 -25 -3 -34 -1 -29 7 4 6 5 11 2 11 -3 0 -8 -4 -11 -10z m96
-53 c-10 -9 -11 -8 -5 6 3 10 9 15 12 12 3 -3 0 -11 -7 -18z m81 -26 c2 7 7 9
10 4 3 -6 -1 -16 -9 -24 -12 -11 -15 -10 -20 8 -6 23 -30 23 -25 1 2 -10 0
-11 -11 -2 -8 7 -17 9 -20 5 -4 -3 -7 -1 -7 6 0 6 7 11 16 9 10 -2 19 3 22 11
3 8 0 11 -7 7 -7 -5 -9 -1 -5 9 5 12 11 9 29 -15 14 -19 25 -26 27 -19z m33
-81 c3 -5 1 -10 -4 -10 -6 0 -11 5 -11 10 0 6 2 10 4 10 3 0 8 -4 11 -10z m5
-80 c0 -5 -2 -10 -4 -10 -3 0 -8 5 -11 10 -3 6 -1 10 4 10 6 0 11 -4 11 -10z
m60 -38 c0 -4 -9 -13 -20 -20 -23 -14 -26 -8 -7 13 13 16 27 19 27 7z m10 -62
c7 -16 18 -30 26 -30 7 0 11 -8 9 -20 -2 -10 6 -31 17 -45 15 -19 18 -29 10
-37 -9 -9 -9 -15 -1 -25 8 -9 8 -13 0 -13 -11 0 -15 13 -12 39 2 8 -3 10 -11
5 -7 -4 -10 -3 -5 1 4 5 -1 17 -10 28 -10 11 -12 17 -5 13 6 -4 12 -2 12 3 0
6 -8 12 -17 12 -17 1 -17 2 0 6 9 2 15 9 11 14 -3 5 -10 6 -16 3 -6 -4 -8 -2
-4 4 3 6 -3 14 -15 17 -16 5 -18 9 -8 15 10 7 10 11 0 24 -8 9 -9 16 -3 16 5
0 15 -13 22 -30z m-15 -39 c3 -5 2 -12 -3 -15 -5 -3 -9 1 -9 9 0 17 3 19 12 6z
m-320 -130 c3 -5 2 -12 -3 -15 -5 -3 -9 1 -9 9 0 17 3 19 12 6z m378 -26 c-3
-9 -8 -14 -10 -11 -3 3 -2 9 2 15 9 16 15 13 8 -4z m22 -5 c-3 -5 -1 -10 4
-10 6 0 11 -5 11 -11 0 -8 -5 -8 -15 1 -13 11 -12 30 1 30 3 0 2 -4 -1 -10z
m-359 -15 c-1 -8 -5 -17 -8 -21 -5 -4 -4 16 1 34 3 9 9 -1 7 -13z m57 -5 c-3
-12 -8 -19 -11 -16 -5 6 5 36 12 36 2 0 2 -9 -1 -20z m-89 2 c3 -5 -1 -9 -9
-9 -8 0 -12 4 -9 9 3 4 7 8 9 8 2 0 6 -4 9 -8z m119 -65 c-3 -4 -11 -3 -18 3
-9 8 -14 6 -19 -6 -4 -9 -4 -19 -1 -22 3 -3 5 0 5 6 0 7 5 12 11 12 5 0 7 -6
3 -12 -6 -10 -4 -10 7 0 18 16 26 15 33 -5 3 -10 10 -28 15 -39 7 -15 5 -30
-4 -48 -8 -15 -10 -28 -4 -32 5 -3 8 0 7 8 -2 7 3 12 11 10 9 -2 11 3 7 15 -6
14 -5 15 5 6 10 -10 9 -16 -1 -28 -11 -13 -10 -15 2 -10 22 9 30 -22 11 -41
-16 -16 -16 -16 2 -11 15 5 23 0 32 -18 13 -28 6 -33 -11 -9 -10 13 -12 12
-13 -7 -1 -11 1 -19 4 -15 11 10 41 -14 39 -31 -4 -23 -32 -29 -53 -11 -14 11
-16 11 -8 -1 6 -11 4 -13 -8 -8 -10 3 -17 2 -17 -4 0 -6 -7 -6 -20 1 -11 6
-20 7 -20 3 0 -9 -121 -10 -136 -1 -5 3 -22 5 -37 3 -23 -3 -26 -1 -16 11 8
10 9 17 0 28 -8 10 -8 16 3 25 11 9 16 9 22 0 4 -7 3 -9 -3 -6 -5 3 -10 0 -10
-8 0 -8 4 -12 9 -9 12 8 10 -10 -4 -26 -11 -12 -10 -12 3 -2 9 6 19 8 24 4 4
-4 2 4 -5 18 -8 14 -13 26 -12 28 7 9 0 32 -8 27 -5 -3 -10 -2 -10 3 0 12 30
26 49 23 11 -2 11 0 0 12 -12 13 -16 13 -30 1 -13 -12 -16 -12 -16 1 0 8 4 12
8 9 4 -2 10 0 14 6 4 6 11 8 16 5 5 -4 9 -1 9 5 0 6 4 9 8 6 11 -6 9 36 -2 53
-6 9 -5 12 1 8 6 -4 13 2 16 13 3 11 0 20 -5 20 -6 0 -1 9 12 20 28 24 31 25
24 5 -4 -8 -10 -15 -14 -15 -5 0 -7 -8 -5 -17 1 -10 -2 -23 -7 -30 -10 -12 8
-30 19 -19 4 3 1 6 -6 6 -7 0 -9 5 -6 10 4 6 10 8 15 5 5 -3 7 7 4 21 -5 25
-3 26 13 14 15 -12 16 -12 6 0 -15 17 -17 34 -3 25 6 -4 7 1 3 11 -4 12 -3 15
5 10 7 -4 17 3 24 19 l12 26 12 -23 c7 -12 10 -26 7 -31z m275 18 c-3 -3 -9 2
-12 12 -6 14 -5 15 5 6 7 -7 10 -15 7 -18z m-318 5 c0 -4 -12 -6 -27 -5 -16 1
-33 -5 -38 -13 -9 -11 -11 -10 -11 5 0 14 8 18 38 19 21 1 38 -2 38 -6z m340
-60 c0 -5 -5 -10 -11 -10 -5 0 -7 5 -4 10 3 6 8 10 11 10 2 0 4 -4 4 -10z m67
-13 c0 -7 -11 -13 -24 -13 -12 0 -23 4 -23 9 0 5 7 7 15 4 8 -4 17 -2 20 3 8
13 12 12 12 -3z m-522 -27 c3 -6 -1 -7 -9 -4 -18 7 -21 14 -7 14 6 0 13 -4 16
-10z m-54 -33 c-10 -9 -11 -8 -5 6 3 10 9 15 12 12 3 -3 0 -11 -7 -18z m78 -3
c-6 -7 -15 -12 -19 -9 -5 3 -11 0 -13 -5 -3 -6 -4 -5 -3 2 2 7 9 13 17 13 8 1
13 7 11 14 -1 7 2 10 8 6 8 -5 8 -11 -1 -21z m491 -4 c0 -5 -2 -10 -4 -10 -3
0 -8 5 -11 10 -3 6 -1 10 4 10 6 0 11 -4 11 -10z m-5 -30 c10 -11 16 -20 13
-20 -3 0 -13 9 -23 20 -10 11 -16 20 -13 20 3 0 13 -9 23 -20z m47 -3 c-2 -10
2 -16 9 -15 6 2 13 -5 14 -14 4 -22 3 -22 -23 0 -17 15 -19 21 -9 32 10 10 9
12 -5 7 -10 -4 -18 -2 -18 4 0 6 8 9 18 7 10 -2 16 -11 14 -21z m-602 -7 c0
-5 -2 -10 -4 -10 -3 0 -8 5 -11 10 -3 6 -1 10 4 10 6 0 11 -4 11 -10z m608
-44 c-2 -1 -10 -7 -20 -14 -11 -9 -18 -10 -23 -2 -4 6 -1 9 7 8 7 -2 12 2 11
9 -2 7 4 10 13 6 8 -3 14 -6 12 -7z m-598 -10 c0 -2 -8 -10 -17 -17 -16 -13
-17 -12 -4 4 13 16 21 21 21 13z m-10 -56 c0 -4 -7 -11 -16 -14 -13 -5 -14 -4
-6 7 7 8 8 18 4 22 -4 5 -1 5 6 1 6 -4 12 -11 12 -16z m637 -77 c0 -9 -4 -10
-14 -2 -7 6 -13 12 -13 14 0 1 6 2 13 2 8 0 14 -6 14 -14z m43 -23 c0 -5 -7
-7 -15 -4 -8 4 -15 8 -15 10 0 2 7 4 15 4 8 0 15 -4 15 -10z m31 -27 c12 -16
12 -17 -2 -6 -9 7 -20 9 -24 5 -5 -4 -5 -1 -1 6 9 16 11 15 27 -5z m-16 -43
c3 -5 1 -10 -4 -10 -6 0 -11 5 -11 10 0 6 2 10 4 10 3 0 8 -4 11 -10z m-330
-120 c3 -6 -1 -7 -9 -4 -18 7 -21 14 -7 14 6 0 13 -4 16 -10z m429 -18 c3 -5
-1 -9 -9 -9 -8 0 -13 3 -10 5 3 3 -3 11 -13 19 -15 13 -15 13 5 3 12 -5 24
-14 27 -18z m-876 -13 c-3 -8 -7 -3 -11 10 -4 17 -3 21 5 13 5 -5 8 -16 6 -23z
m80 6 c-3 -3 -9 2 -12 12 -6 14 -5 15 5 6 7 -7 10 -15 7 -18z m197 16 c3 -5 2
-12 -3 -15 -5 -3 -9 1 -9 9 0 17 3 19 12 6z m38 -6 c-3 -9 -8 -14 -10 -11 -3
3 -2 9 2 15 9 16 15 13 8 -4z m205 -4 c0 -3 0 -13 1 -21 1 -13 2 -13 12 0 9
13 10 13 6 0 -2 -8 -8 -15 -13 -15 -5 0 -15 -4 -23 -9 -10 -6 -16 -5 -19 2 -2
7 -8 10 -13 6 -5 -3 -9 -1 -9 4 0 15 26 22 39 9 6 -6 11 -7 11 -1 0 6 -5 15
-10 20 -7 7 -6 11 4 11 8 0 15 -3 14 -6z m-550 -31 c-7 -11 -16 -20 -20 -20
-11 0 -10 9 5 25 18 21 29 18 15 -5z m432 10 c0 -5 -4 -10 -10 -10 -5 0 -10 5
-10 10 0 6 5 10 10 10 6 0 10 -4 10 -10z m-540 -40 c0 -5 -5 -10 -11 -10 -5 0
-7 5 -4 10 3 6 8 10 11 10 2 0 4 -4 4 -10z m120 -8 c0 -4 -9 -8 -20 -9 -22 -2
-27 13 -7 20 14 5 27 -1 27 -11z m896 -15 c1 -14 -3 -24 -7 -21 -4 2 -5 12 -2
20 3 9 0 20 -8 26 -12 8 -11 9 1 5 8 -2 15 -16 16 -30z m-1016 -17 c0 -5 -5
-10 -11 -10 -5 0 -7 5 -4 10 3 6 8 10 11 10 2 0 4 -4 4 -10z m-50 -55 c0 -2
-6 -8 -13 -14 -10 -8 -14 -7 -14 2 0 8 6 14 14 14 7 0 13 -1 13 -2z m27 -10
c0 -8 -4 -12 -9 -9 -5 3 -6 10 -3 15 9 13 12 11 12 -6z m1083 11 c0 -2 -7 -7
-16 -10 -8 -3 -12 -2 -9 4 6 10 25 14 25 6z m-1083 -55 c-1 -19 -20 -22 -34
-6 -4 4 -2 5 5 1 7 -4 15 -1 18 8 8 21 13 20 11 -3z m1127 -13 c-3 -4 -11 -8
-17 -8 -7 0 -6 4 3 10 11 7 11 10 2 10 -7 0 -10 5 -6 11 4 8 9 7 15 -2 4 -7 5
-17 3 -21z m-1184 2 c0 -5 -2 -10 -4 -10 -3 0 -8 5 -11 10 -3 6 -1 10 4 10 6
0 11 -4 11 -10z m16 -69 c-4 -5 -2 -11 4 -13 6 -2 1 -9 -11 -16 -17 -11 -20
-11 -13 0 5 7 9 16 10 21 3 15 4 17 10 17 3 0 3 -4 0 -9z m1179 -11 c3 -5 1
-10 -4 -10 -6 0 -11 5 -11 10 0 6 2 10 4 10 3 0 8 -4 11 -10z m-1175 -55 c0
-8 -4 -15 -10 -15 -5 0 -7 7 -4 15 4 8 8 15 10 15 2 0 4 -7 4 -15z m1197 -20
c0 -8 -4 -12 -9 -9 -5 3 -6 10 -3 15 9 13 12 11 12 -6z m-1297 -5 c0 -5 -5
-10 -11 -10 -5 0 -7 5 -4 10 3 6 8 10 11 10 2 0 4 -4 4 -10z m-204 -33 c1 -9
-5 -18 -13 -22 -17 -6 -56 23 -48 36 9 14 58 3 61 -14z m1364 -1 c0 -3 -4 -8
-10 -11 -5 -3 -10 -1 -10 4 0 6 5 11 10 11 6 0 10 -2 10 -4z m40 0 c0 -3 -4
-8 -10 -11 -5 -3 -10 -1 -10 4 0 6 5 11 10 11 6 0 10 -2 10 -4z m40 -6 c0 -5
-5 -10 -11 -10 -5 0 -7 5 -4 10 3 6 8 10 11 10 2 0 4 -4 4 -10z m35 0 c3 -5 1
-10 -4 -10 -6 0 -11 5 -11 10 0 6 2 10 4 10 3 0 8 -4 11 -10z m40 -9 c3 -5 2
-12 -3 -15 -5 -3 -9 1 -9 9 0 17 3 19 12 6z m-1483 -33 c-8 -8 -9 -4 -5 13 4
13 8 18 11 10 2 -7 -1 -18 -6 -23z m63 13 c3 -5 2 -12 -3 -15 -5 -3 -9 1 -9 9
0 17 3 19 12 6z m1389 -25 c3 2 4 1 0 -3 -3 -4 -15 -8 -27 -8 -12 0 -21 -6
-19 -13 2 -10 -2 -10 -17 0 -11 7 -17 16 -14 21 3 5 9 3 14 -4 8 -13 13 -6 10
13 0 4 10 3 23 -2 13 -5 27 -7 30 -4z m-1460 -17 c-6 -11 -24 -2 -24 11 0 5 7
7 15 4 8 -4 12 -10 9 -15z"/>
<path d="M1770 2566 c0 -2 8 -10 18 -17 15 -13 16 -12 3 4 -13 16 -21 21 -21
13z"/>
<path d="M1510 2401 c0 -6 4 -13 10 -16 6 -3 7 1 4 9 -7 18 -14 21 -14 7z"/>
<path d="M1533 2335 c0 -8 4 -12 8 -9 4 2 10 -2 12 -8 4 -8 6 -9 6 -2 1 6 -5
17 -12 23 -10 8 -14 7 -14 -4z"/>
<path d="M1533 2295 c0 -8 4 -12 9 -9 5 3 6 10 3 15 -9 13 -12 11 -12 -6z"/>
<path d="M1430 2259 c0 -5 5 -7 10 -4 6 3 10 8 10 11 0 2 -4 4 -10 4 -5 0 -10
-5 -10 -11z"/>
<path d="M1415 2220 c3 -5 8 -10 11 -10 2 0 4 5 4 10 0 6 -5 10 -11 10 -5 0
-7 -4 -4 -10z"/>
<path d="M1588 2213 c7 -3 16 -2 19 1 4 3 -2 6 -13 5 -11 0 -14 -3 -6 -6z"/>
<path d="M1376 2191 c-2 -3 3 -15 11 -26 12 -15 14 -16 10 -3 -4 11 0 18 11
20 13 3 12 5 -5 10 -13 3 -25 3 -27 -1z"/>
<path d="M1616 2106 c3 -9 13 -16 22 -16 8 0 13 1 11 3 -2 1 -12 9 -22 16 -15
12 -17 12 -11 -3z"/>
<path d="M1410 2099 c0 -5 5 -7 10 -4 6 3 10 8 10 11 0 2 -4 4 -10 4 -5 0 -10
-5 -10 -11z"/>
<path d="M720 1385 c-7 -9 -8 -15 -2 -15 5 0 12 7 16 15 3 8 4 15 2 15 -2 0
-9 -7 -16 -15z"/>
<path d="M2055 2950 c-3 -5 -19 -8 -35 -6 -48 5 -53 -5 -31 -62 12 -29 18 -52
15 -52 -4 0 -1 -7 6 -15 11 -13 10 -14 -3 -10 -8 4 -18 2 -22 -4 -3 -6 0 -9 8
-5 18 6 50 -24 40 -39 -14 -23 -8 -63 9 -63 10 0 14 4 9 11 -14 18 -21 45 -11
45 6 0 10 -7 10 -15 0 -8 9 -30 19 -49 11 -19 17 -37 13 -41 -10 -9 -10 -55 0
-55 4 0 6 11 4 25 -3 15 -1 23 5 20 5 -4 7 -11 4 -16 -4 -5 -1 -9 6 -9 7 0 9
-3 6 -6 -3 -4 -1 -16 5 -28 7 -11 13 -23 13 -26 0 -3 6 -15 13 -28 11 -18 10
-23 -2 -28 -12 -5 -12 -8 2 -23 9 -10 19 -17 22 -15 4 1 11 -5 17 -15 9 -14 8
-18 -3 -18 -7 0 -11 4 -8 9 3 4 1 8 -4 8 -20 0 -19 -26 1 -27 28 -3 40 -25 22
-39 -8 -6 -15 -15 -15 -19 0 -4 7 -2 15 5 13 11 18 10 29 -6 8 -10 12 -24 9
-30 -2 -7 0 -15 6 -18 6 -4 7 -14 4 -23 -4 -11 -3 -14 5 -9 7 4 12 2 12 -3 0
-22 2 -26 17 -43 9 -10 13 -18 8 -18 -4 0 -2 -7 5 -15 7 -8 9 -15 5 -15 -4 0
-1 -8 6 -17 12 -15 12 -16 -1 -8 -8 4 -12 5 -8 0 4 -4 3 -14 -4 -22 -9 -11 -8
-13 3 -11 9 2 13 -4 11 -14 -2 -10 2 -18 8 -18 6 0 9 -4 5 -9 -3 -5 0 -13 6
-17 8 -4 9 -3 5 4 -4 7 -2 12 3 12 6 0 11 -9 11 -21 0 -13 4 -18 12 -13 6 4 8
3 5 -3 -3 -5 5 -28 18 -50 21 -39 22 -43 7 -65 l-16 -23 24 20 23 20 -11 -21
c-10 -18 -7 -26 13 -48 23 -25 27 -33 24 -52 0 -4 5 -11 13 -16 10 -8 10 -9
-2 -5 -8 2 -14 10 -12 16 1 7 -2 9 -9 5 -9 -5 -5 -14 13 -28 24 -20 43 -53 40
-68 -1 -5 3 -8 9 -8 5 0 8 -4 5 -9 -3 -5 1 -14 9 -21 7 -6 11 -18 8 -26 -4
-11 -9 -12 -18 -4 -10 9 -13 7 -10 -7 2 -10 4 -20 4 -22 1 -2 11 4 23 15 12
10 18 14 15 7 -4 -6 -3 -15 3 -18 6 -4 8 -16 4 -27 -4 -15 -3 -19 7 -14 8 4 6
1 -3 -6 -15 -13 -14 -16 13 -32 33 -20 33 -34 0 -17 -14 8 -22 8 -27 -1 -4 -6
-3 -8 4 -4 6 3 17 -1 26 -10 9 -8 20 -12 26 -9 6 4 9 3 8 -2 -1 -4 3 -17 9
-28 6 -11 9 -30 7 -43 -2 -13 0 -21 5 -18 7 5 20 -13 23 -34 1 -3 11 -21 24
-41 15 -24 19 -40 13 -50 -14 -22 -10 -35 4 -15 8 11 20 16 28 13 10 -4 9 -6
-3 -6 -29 -2 -20 -21 10 -22 15 0 37 -2 50 -3 13 -2 27 4 31 13 8 13 11 13 28
1 16 -13 17 -13 6 1 -15 19 -8 30 15 22 13 -4 14 -3 4 5 -8 5 -13 12 -13 16 1
3 -2 6 -6 6 -5 0 -8 -4 -8 -9 0 -5 -3 -12 -7 -15 -5 -3 -6 -3 -3 0 2 4 0 15
-6 25 -8 15 -6 17 8 12 16 -6 17 -5 3 13 -14 18 -14 18 3 5 9 -8 21 -10 25 -6
4 4 1 10 -6 12 -6 3 -10 9 -6 14 6 11 25 12 21 2 -2 -9 7 -13 26 -13 6 0 4 5
-6 11 -9 6 -15 14 -12 20 8 12 -1 11 -28 -2 -22 -10 -22 -10 -2 6 11 9 19 24
17 33 -2 13 -1 14 6 4 7 -11 10 -11 15 2 4 11 1 16 -11 17 -12 0 -10 4 8 11
14 6 30 12 35 13 6 0 9 7 7 14 -2 8 3 11 12 8 9 -4 18 -1 22 5 4 6 3 8 -4 4
-6 -3 -13 -2 -17 4 -6 9 8 15 29 11 5 -1 4 4 -2 12 -7 8 -8 18 -4 22 4 5 1 5
-6 1 -7 -4 -9 -13 -6 -19 4 -7 3 -9 -1 -4 -5 4 -9 18 -10 32 -1 24 0 24 23 9
14 -9 22 -11 18 -6 -4 6 2 16 11 21 15 9 13 10 -11 6 -16 -2 -26 -1 -22 2 8 8
-14 34 -24 28 -4 -3 -14 3 -21 13 -13 15 -12 16 4 3 9 -7 17 -10 17 -6 0 4 7
2 15 -5 12 -10 16 -9 21 4 3 9 11 16 17 16 5 0 2 -9 -8 -20 -10 -11 -13 -20
-8 -20 6 0 14 7 17 16 3 8 10 12 16 9 6 -3 7 1 4 9 -3 9 -10 16 -16 16 -5 0
-6 5 -3 10 5 8 11 8 19 1 9 -8 13 -7 13 4 0 8 -4 12 -8 9 -4 -2 -11 1 -15 7
-4 8 -9 7 -16 -2 -8 -11 -9 -11 -5 1 2 8 13 14 23 12 16 -2 15 1 -6 18 l-25
21 28 -12 c15 -7 27 -16 27 -21 0 -4 5 -8 12 -8 6 0 1 12 -13 26 -16 19 -20
28 -11 31 6 3 9 10 6 15 -4 6 -2 8 3 5 17 -10 25 24 11 41 -10 12 -10 14 0 8
6 -4 12 -2 12 3 0 6 5 11 11 11 8 0 7 -5 -1 -16 -8 -8 -9 -14 -4 -13 22 4 26
-2 9 -14 -15 -12 -16 -15 -4 -22 8 -5 11 -5 7 0 -4 4 0 14 10 21 14 11 14 15
4 22 -19 12 -15 25 11 39 12 7 16 12 9 13 -7 0 -11 4 -7 10 3 5 13 7 23 4 15
-5 15 -4 -1 6 -9 6 -15 16 -11 22 4 7 10 5 16 -3 8 -11 9 -10 4 3 -3 11 2 21
12 27 9 5 13 13 9 17 -5 5 -11 4 -15 -1 -11 -16 -30 -16 -36 0 -3 8 0 17 6 21
7 4 8 3 4 -4 -4 -7 -3 -12 3 -12 5 0 13 5 16 10 4 6 10 8 15 5 5 -3 11 -1 15
5 4 6 11 7 17 4 7 -4 8 -2 4 5 -4 6 -13 8 -19 4 -20 -12 -37 -12 -34 0 1 7 -5
11 -13 9 -11 -3 -11 1 3 16 9 10 14 22 10 26 -4 4 1 4 11 0 15 -6 17 -4 11 6
-6 9 -4 11 5 5 10 -6 12 -4 7 10 -4 9 -2 24 4 31 13 15 3 37 -13 28 -7 -4 -8
-2 -4 5 6 9 11 9 21 1 9 -8 15 -8 20 0 3 5 0 10 -7 10 -9 0 -9 3 2 10 8 5 20
10 25 10 6 0 3 -5 -5 -10 -8 -5 -10 -10 -5 -10 6 0 17 5 25 10 11 7 11 10 2
10 -7 0 -11 4 -7 10 3 5 11 8 18 6 7 -1 9 -1 5 1 -5 3 -8 9 -8 14 0 6 6 7 13
3 9 -6 9 -5 -1 8 -10 12 -9 18 3 28 8 7 13 16 10 20 -3 5 -1 11 4 15 6 3 8 12
4 21 -3 9 0 14 7 12 7 -2 15 3 17 10 3 6 0 12 -7 12 -6 0 -9 -4 -6 -9 3 -5 -2
-8 -12 -7 -12 1 -17 -6 -16 -21 1 -13 -2 -23 -6 -23 -4 0 -7 18 -6 40 1 25 4
36 10 30 17 -17 29 -11 15 8 -7 9 -9 14 -5 10 5 -5 16 1 24 13 12 18 12 23 -5
41 l-18 21 28 -18 c15 -9 27 -13 27 -9 0 5 5 2 10 -6 5 -8 10 -10 10 -4 0 6
-8 18 -17 25 -14 12 -16 12 -8 0 5 -10 4 -12 -3 -7 -9 5 -9 13 -2 27 6 11 8
25 4 31 -4 7 -3 8 5 4 6 -4 9 -16 6 -26 -3 -10 0 -20 8 -23 9 -3 12 4 9 29 -2
19 -9 34 -14 34 -5 0 -8 5 -6 11 4 13 23 13 23 -1 0 -5 5 -10 10 -9 6 0 9 7 7
16 -2 8 1 12 7 8 7 -4 8 0 4 11 -5 13 -3 15 7 9 9 -5 11 -4 6 3 -4 7 -2 12 4
12 6 0 8 5 4 12 -5 8 -2 9 9 5 24 -9 21 0 -4 14 -12 6 -19 7 -16 2 8 -12 -20
-53 -36 -53 -7 0 -5 6 5 14 14 10 15 15 5 25 -9 10 -8 11 8 5 11 -4 17 -3 12
1 -4 5 0 17 9 27 13 14 14 21 5 32 -14 17 6 27 40 21 17 -4 20 -2 11 7 -19 19
-15 31 23 75 32 37 33 42 18 54 -14 12 -16 12 -8 0 5 -10 4 -12 -3 -7 -19 11
-14 29 6 24 12 -3 19 0 19 9 0 8 -7 12 -16 8 -14 -4 -14 -4 -1 7 9 8 15 28 15
48 0 28 -4 34 -19 32 -14 -3 -16 1 -11 20 l7 23 -16 -22 c-10 -14 -23 -19 -36
-16 -11 3 -17 9 -15 14 3 4 13 5 23 2 18 -7 17 -5 -12 17 -13 10 -17 10 -12 3
5 -9 0 -13 -16 -13 -13 0 -30 6 -37 13 -8 6 -11 7 -8 1 5 -8 -15 -12 -66 -12
-39 0 -77 -1 -83 -1 -7 -1 -19 -16 -27 -33 -22 -47 -49 -111 -53 -123 -10 -33
-70 -171 -76 -173 -5 -2 -8 -9 -8 -15 0 -14 -81 -209 -89 -217 -3 -3 -7 -9 -8
-15 -1 -5 -17 -47 -35 -92 -25 -62 -37 -81 -48 -77 -11 4 -12 2 -4 -6 9 -9 5
-27 -14 -73 -15 -34 -31 -65 -37 -69 -5 -4 -7 -8 -2 -8 4 0 1 -13 -8 -30 -8
-16 -16 -33 -16 -37 0 -5 -5 -14 -11 -20 -11 -14 -32 -7 -23 7 3 5 -5 16 -17
24 -18 13 -20 18 -9 28 11 10 12 10 7 1 -5 -9 -2 -11 10 -6 14 5 16 3 11 -10
-5 -15 -3 -16 13 -7 10 5 22 16 26 23 5 9 4 9 -6 0 -10 -9 -18 -8 -38 5 -23
15 -25 15 -37 -1 -11 -15 -13 -16 -18 -2 -4 8 -1 14 5 12 6 -1 13 4 15 11 3 7
-1 11 -9 10 -19 -4 -12 44 10 60 15 12 13 13 -13 7 -23 -5 -26 -4 -15 4 12 9
13 11 1 11 -8 0 -22 -7 -31 -15 -14 -13 -16 -12 -16 4 0 11 6 17 12 14 8 -3
11 4 10 20 -4 32 -14 47 -29 43 -7 -1 -9 -1 -4 1 4 3 7 9 7 14 0 6 -6 7 -12 3
-7 -4 -10 -4 -6 1 4 4 3 15 -2 25 -6 12 -5 17 5 17 7 0 11 -6 8 -13 -2 -6 0
-15 6 -19 7 -4 8 0 4 12 -6 15 -5 16 9 3 11 -10 13 -19 7 -27 -14 -16 9 -29
24 -14 9 9 7 10 -8 5 -17 -7 -18 -6 -7 8 11 14 10 20 -9 37 -13 12 -26 21 -31
21 -4 0 -8 5 -8 11 0 5 5 7 11 4 6 -4 5 2 -3 14 -11 17 -10 25 1 44 13 20 13
21 -2 9 -11 -9 -17 -10 -22 -2 -4 6 -16 8 -27 4 -16 -5 -20 -3 -15 9 3 8 1 19
-4 24 -15 15 0 43 19 36 9 -4 14 -3 10 1 -3 4 -12 8 -20 10 -7 1 -22 7 -33 14
-18 11 -17 12 8 6 16 -4 27 -2 27 5 0 6 -7 8 -16 4 -14 -5 -14 -2 2 23 11 15
14 25 7 21 -13 -8 -43 1 -43 14 0 4 6 7 13 5 6 -1 9 -1 4 1 -4 3 -4 10 0 16 5
9 3 9 -8 1 -17 -14 -49 -14 -49 -1 0 5 6 7 14 4 16 -6 43 19 32 30 -3 3 -6 2
-6 -3 0 -5 -8 -10 -17 -11 -10 0 -28 -3 -40 -6 -13 -3 -25 -2 -28 2 -2 5 3 8
13 8 34 0 43 3 38 12 -3 5 2 8 11 7 9 0 17 5 19 12 1 7 0 8 -3 2 -7 -15 -26
-12 -20 3 3 7 -1 21 -9 31 -10 14 -10 25 -3 40 10 21 10 21 -6 1 -18 -23 -52
-29 -52 -9 0 9 5 10 19 3 14 -7 18 -6 18 6 0 9 -4 14 -9 10 -5 -3 -13 0 -17 6
-4 8 -3 9 4 5 7 -4 12 -2 12 3 0 6 -4 11 -10 11 -5 0 -6 8 -3 18 6 14 4 15 -9
4 -13 -10 -18 -10 -24 -1 -4 8 -3 9 4 5 7 -4 12 -3 12 2 0 17 -13 22 -29 10
-13 -10 -14 -10 -3 2 15 17 16 34 2 25 -6 -4 -9 -1 -8 7 2 7 -2 12 -7 11 -16
-2 -14 55 2 61 8 3 11 1 8 -4 -3 -6 -2 -10 3 -10 5 0 10 11 10 25 0 14 -5 25
-10 25 -5 0 -7 -4 -4 -9 3 -5 -3 -11 -14 -14 -13 -3 -24 3 -35 19 -8 13 -20
24 -26 24 -8 0 -7 -5 1 -15 7 -8 8 -15 3 -15 -11 0 -44 55 -38 62 3 3 -20 4
-50 2 -41 -2 -54 0 -49 9 5 9 3 9 -7 0 -16 -15 -43 -17 -34 -3 3 6 4 10 1 10
-3 0 -8 -4 -11 -10z m1382 -57 c0 -7 -4 -10 -9 -7 -4 3 -8 -2 -8 -11 0 -10 5
-13 12 -9 7 4 8 3 4 -5 -10 -16 -26 -4 -26 20 0 11 -4 17 -10 14 -5 -3 -10 -2
-10 3 0 6 10 9 23 8 13 0 24 -6 24 -13z m-71 -29 c1 -9 0 -13 -4 -10 -3 4 -7
14 -8 22 -1 9 0 13 4 10 3 -4 7 -14 8 -22z m-1102 -2 c3 -5 -1 -9 -9 -9 -8 0
-12 4 -9 9 3 4 7 8 9 8 2 0 6 -4 9 -8z m1146 -27 c0 -7 -7 -16 -16 -19 -14 -5
-15 -4 -5 8 7 8 9 21 5 27 -4 8 -3 9 4 5 7 -4 12 -13 12 -21z m-80 -49 c0 -2
-7 -7 -16 -10 -8 -3 -12 -2 -9 4 6 10 25 14 25 6z m75 -7 c4 -6 14 -8 23 -4
10 4 4 -8 -13 -27 -17 -18 -31 -35 -32 -37 -1 -2 -1 8 1 21 1 13 5 29 9 35 4
6 1 14 -5 16 -9 4 -10 6 -1 6 6 1 15 -4 18 -10z m-95 -39 c0 -5 -5 -10 -11
-10 -5 0 -7 5 -4 10 3 6 8 10 11 10 2 0 4 -4 4 -10z m33 -35 c-3 -9 -8 -14
-10 -11 -3 3 -2 9 2 15 9 16 15 13 8 -4z m-33 -5 c0 -5 -2 -10 -4 -10 -3 0 -8
5 -11 10 -3 6 -1 10 4 10 6 0 11 -4 11 -10z m57 -4 c-3 -7 0 -20 6 -27 10 -11
9 -11 -4 -1 -9 6 -19 8 -24 4 -4 -4 -1 3 6 16 15 25 24 29 16 8z m-57 -36 c0
-5 -2 -10 -4 -10 -3 0 -8 5 -11 10 -3 6 -1 10 4 10 6 0 11 -4 11 -10z m-899
-53 c-5 -5 -17 -7 -26 -3 -14 5 -15 9 -5 21 10 12 16 13 27 4 9 -8 10 -16 4
-22z m49 -112 c5 3 11 1 14 -4 4 -5 1 -13 -5 -16 -11 -7 -38 22 -38 40 0 6 4
2 10 -8 6 -9 14 -15 19 -12z m-300 -15 c0 -5 -2 -10 -4 -10 -3 0 -8 5 -11 10
-3 6 -1 10 4 10 6 0 11 -4 11 -10z m270 4 c0 -8 -19 -13 -24 -6 -3 5 1 9 9 9
8 0 15 -2 15 -3z m40 -64 c0 -5 -5 -10 -11 -10 -5 0 -7 5 -4 10 3 6 8 10 11
10 2 0 4 -4 4 -10z m751 -43 c-10 -9 -11 -8 -5 6 3 10 9 15 12 12 3 -3 0 -11
-7 -18z m-41 -11 c0 -2 -8 -10 -17 -17 -16 -13 -17 -12 -4 4 13 16 21 21 21
13z m-648 -26 c0 -5 1 -16 2 -22 1 -7 5 -16 11 -20 5 -4 0 -6 -12 -5 -17 1
-19 4 -11 14 7 9 7 17 -2 28 -9 10 -9 15 -1 15 6 0 12 -4 13 -10z m-30 -36
c-9 -16 -10 -14 -9 8 1 15 6 23 11 18 4 -4 4 -16 -2 -26z m648 -4 c0 -5 -2
-10 -4 -10 -3 0 -8 5 -11 10 -3 6 -1 10 4 10 6 0 11 -4 11 -10z m-640 -40 c0
-5 -5 -10 -11 -10 -5 0 -7 5 -4 10 3 6 8 10 11 10 2 0 4 -4 4 -10z m663 -5
c-3 -9 -8 -14 -10 -11 -3 3 -2 9 2 15 9 16 15 13 8 -4z m37 1 c0 -2 -7 -9 -15
-16 -13 -11 -14 -10 -9 4 5 14 24 23 24 12z m-31 -57 c-8 -16 -29 -27 -29 -15
0 2 -3 13 -6 23 -6 16 -5 16 10 -2 17 -20 17 -20 13 2 -3 15 -1 20 9 16 10 -4
11 -10 3 -24z m-91 -4 c-3 -3 -9 2 -12 12 -6 14 -5 15 5 6 7 -7 10 -15 7 -18z
m37 5 c3 -5 1 -10 -4 -10 -6 0 -11 5 -11 10 0 6 2 10 4 10 3 0 8 -4 11 -10z
m-548 -42 c-3 -8 -6 -5 -6 6 -1 11 2 17 5 13 3 -3 4 -12 1 -19z m563 18 c0 -2
-7 -7 -16 -10 -8 -3 -12 -2 -9 4 6 10 25 14 25 6z m-830 -46 c0 -5 -2 -10 -4
-10 -3 0 -8 5 -11 10 -3 6 -1 10 4 10 6 0 11 -4 11 -10z m15 -30 c3 -5 2 -10
-4 -10 -5 0 -13 5 -16 10 -3 6 -2 10 4 10 5 0 13 -4 16 -10z m282 -22 c-3 -8
-6 -5 -6 6 -1 11 2 17 5 13 3 -3 4 -12 1 -19z m423 -12 c0 -3 -4 -8 -10 -11
-5 -3 -10 -1 -10 4 0 6 5 11 10 11 6 0 10 -2 10 -4z m0 -40 c0 -3 -4 -8 -10
-11 -5 -3 -10 -1 -10 4 0 6 5 11 10 11 6 0 10 -2 10 -4z m-363 -78 c-3 -8 -6
-5 -6 6 -1 11 2 17 5 13 3 -3 4 -12 1 -19z m398 -18 c-10 -11 -15 -20 -10 -20
4 0 2 -6 -4 -13 -6 -8 -8 -17 -4 -20 3 -4 1 -7 -5 -7 -15 0 -16 17 -2 25 8 5
7 12 -2 23 -7 10 -9 14 -4 10 5 -4 15 -1 23 7 22 22 29 18 8 -5z m-655 -30 c0
-5 -2 -10 -4 -10 -3 0 -8 5 -11 10 -3 6 -1 10 4 10 6 0 11 -4 11 -10z m620 6
c0 -2 -12 -11 -27 -20 l-28 -17 24 20 c23 21 31 25 31 17z m-160 -206 c0 -5
-5 -10 -11 -10 -5 0 -7 5 -4 10 3 6 8 10 11 10 2 0 4 -4 4 -10z m65 -20 c3 -5
1 -10 -5 -10 -6 0 -8 -6 -4 -12 4 -7 3 -9 -1 -5 -12 10 -15 37 -5 37 5 0 12
-4 15 -10z m-39 -102 c3 -4 -1 -5 -10 -4 -8 1 -18 5 -22 8 -3 4 1 5 10 4 8 -1
18 -5 22 -8z m-346 -8 c0 -5 -2 -10 -4 -10 -3 0 -8 5 -11 10 -3 6 -1 10 4 10
6 0 11 -4 11 -10z m340 -51 c-5 -9 -6 -20 -2 -25 4 -5 0 -4 -7 3 -12 10 -12
15 0 29 12 16 12 17 -5 11 -16 -6 -17 -5 -6 8 17 20 33 -1 20 -26z m-60 27 c0
-3 -4 -8 -10 -11 -5 -3 -10 -1 -10 4 0 6 5 11 10 11 6 0 10 -2 10 -4z m-25
-66 c3 -5 1 -10 -4 -10 -6 0 -11 5 -11 10 0 6 2 10 4 10 3 0 8 -4 11 -10z
m-15 -80 c0 -5 -5 -10 -11 -10 -5 0 -7 5 -4 10 3 6 8 10 11 10 2 0 4 -4 4 -10z
m-83 -70 c1 -11 -2 -20 -7 -20 -6 0 -7 17 -1 38 3 8 7 -1 8 -18z m73 -25 c0
-5 -5 -3 -10 5 -5 8 -10 20 -10 25 0 6 5 3 10 -5 5 -8 10 -19 10 -25z m-36
-25 c-6 -6 -15 -5 -24 1 -13 9 -12 10 3 5 9 -3 17 0 17 6 0 6 3 8 7 5 4 -4 2
-12 -3 -17z"/>
<path d="M3395 2760 c-3 -5 -1 -10 4 -10 6 0 11 5 11 10 0 6 -2 10 -4 10 -3 0
-8 -4 -11 -10z"/>
<path d="M2385 2620 c-3 -5 1 -10 10 -10 9 0 13 5 10 10 -3 6 -8 10 -10 10 -2
0 -7 -4 -10 -10z"/>
<path d="M2223 2925 c0 -7 6 -11 12 -8 7 2 21 -7 32 -20 19 -25 20 -25 32 -5
7 11 8 17 2 14 -5 -4 -12 -2 -16 4 -4 6 -11 8 -16 5 -5 -4 -9 -2 -9 3 0 5 -8
12 -18 14 -11 3 -19 0 -19 -7z"/>
<path d="M1955 2860 c-3 -5 -1 -10 4 -10 6 0 11 5 11 10 0 6 -2 10 -4 10 -3 0
-8 -4 -11 -10z"/>
<path d="M1980 2830 c-8 -5 -12 -12 -9 -15 4 -3 12 1 19 10 14 17 11 19 -10 5z"/>
<path d="M2303 2828 c4 -20 30 -47 39 -41 5 3 8 -3 6 -12 -2 -10 2 -20 9 -22
7 -3 11 4 10 16 -1 12 -5 21 -9 21 -4 0 -8 6 -8 13 0 8 -11 19 -25 25 -19 9
-24 9 -22 0z m35 -33 c-3 -3 -9 2 -12 12 -6 14 -5 15 5 6 7 -7 10 -15 7 -18z"/>
<path d="M1682 2801 c-11 -7 -10 -9 3 -14 9 -4 13 -3 10 3 -9 14 8 12 25 -2
12 -11 12 -10 1 5 -15 19 -20 20 -39 8z"/>
<path d="M1990 2776 c0 -2 9 -6 20 -9 11 -3 18 -1 14 4 -5 9 -34 13 -34 5z"/>
<path d="M2388 2723 c5 -21 7 -23 10 -9 2 10 0 22 -6 28 -6 6 -7 0 -4 -19z"/>
<path d="M3415 2719 c-11 -16 -1 -19 13 -3 7 8 8 14 3 14 -5 0 -13 -5 -16 -11z"/>
<path d="M3395 2680 c3 -5 8 -10 11 -10 2 0 4 5 4 10 0 6 -5 10 -11 10 -5 0
-7 -4 -4 -10z"/>
<path d="M2041 2677 c2 -1 13 -9 24 -17 19 -14 19 -14 6 3 -7 9 -18 17 -24 17
-6 0 -8 -1 -6 -3z"/>
<path d="M3350 2642 c0 -15 11 -21 27 -15 12 5 12 7 1 14 -17 11 -28 11 -28 1z"/>
<path d="M3345 2600 c-3 -6 1 -7 9 -4 18 7 21 14 7 14 -6 0 -13 -4 -16 -10z"/>
<path d="M2098 2568 c10 -13 10 -17 0 -21 -7 -2 -10 -7 -7 -11 3 -4 11 0 18 7
9 11 7 17 -6 28 -16 13 -17 12 -5 -3z"/>
<path d="M3333 2485 c0 -8 4 -12 9 -9 5 3 6 10 3 15 -9 13 -12 11 -12 -6z"/>
<path d="M1836 2474 c-5 -14 -4 -15 9 -4 17 14 19 20 6 20 -5 0 -12 -7 -15
-16z"/>
<path d="M1847 2445 c-4 -8 -2 -17 3 -20 5 -3 7 -12 4 -19 -3 -8 0 -17 5 -21
6 -3 9 -10 6 -15 -3 -5 0 -12 6 -16 8 -5 9 -3 4 6 -6 10 -3 12 11 7 18 -7 18
-7 0 8 -11 8 -14 15 -8 15 7 0 12 5 12 11 0 8 -6 7 -16 -2 -15 -12 -16 -11
-10 9 5 14 3 22 -5 22 -9 0 -8 4 1 15 7 9 8 15 2 15 -5 0 -12 -7 -15 -15z"/>
<path d="M2490 2400 c0 -5 5 -12 10 -15 6 -4 7 -11 4 -17 -4 -5 4 -4 17 2 34
18 38 24 9 15 -21 -7 -23 -6 -13 6 10 12 8 15 -8 16 -10 1 -19 -2 -19 -7z"/>
<path d="M3253 2378 c-15 -19 -27 -44 -18 -36 4 4 14 3 22 -3 9 -9 13 -8 13 0
0 6 -4 11 -10 11 -5 0 -10 5 -10 10 0 7 6 7 18 1 14 -7 19 -6 19 4 0 7 -7 11
-15 7 -10 -3 -13 -1 -8 6 10 16 1 15 -11 0z"/>
<path d="M2190 2343 c0 -5 6 -18 14 -28 8 -11 12 -26 9 -35 -4 -13 -3 -13 5 0
7 9 7 18 1 26 -5 7 -8 17 -7 24 2 7 -3 15 -9 17 -7 3 -13 1 -13 -4z"/>
<path d="M2566 2317 c3 -10 9 -15 12 -12 3 3 0 11 -7 18 -10 9 -11 8 -5 -6z"/>
<path d="M1905 2291 c-6 -11 13 -26 22 -17 4 3 0 6 -8 6 -11 0 -11 2 1 10 9 6
10 10 3 10 -6 0 -14 -4 -18 -9z"/>
<path d="M2230 2249 c0 -5 5 -7 10 -4 6 3 10 8 10 11 0 2 -4 4 -10 4 -5 0 -10
-5 -10 -11z"/>
<path d="M2245 2220 c3 -5 11 -10 16 -10 6 0 7 5 4 10 -3 6 -11 10 -16 10 -6
0 -7 -4 -4 -10z"/>
<path d="M2262 2174 c-1 -13 0 -24 2 -24 7 0 14 40 7 44 -4 3 -8 -6 -9 -20z"/>
<path d="M2620 2179 c0 -5 -4 -8 -8 -5 -4 2 -8 -4 -8 -14 0 -10 4 -16 9 -13 4
2 14 0 22 -7 10 -8 15 -8 21 2 4 7 4 10 -1 6 -12 -11 -35 11 -28 28 3 8 2 14
-1 14 -3 0 -6 -5 -6 -11z"/>
<path d="M3188 2143 c7 -3 16 -2 19 1 4 3 -2 6 -13 5 -11 0 -14 -3 -6 -6z"/>
<path d="M3135 2114 c-13 -20 -14 -28 -5 -34 19 -12 13 -22 -21 -37 -23 -10
-29 -17 -22 -24 12 -12 36 -3 28 11 -3 4 4 10 14 13 20 5 22 21 8 45 -5 6 -4
12 2 12 5 0 14 -8 20 -17 9 -16 10 -16 8 4 0 12 -5 19 -9 17 -4 -3 -8 2 -8 11
0 9 5 13 10 10 6 -3 10 -1 10 4 0 19 -17 12 -35 -15z"/>
<path d="M1983 2114 c0 -7 6 -10 14 -7 7 3 13 8 13 12 0 4 -6 8 -13 8 -8 0
-14 -6 -14 -13z"/>
<path d="M2636 2074 c-4 -9 -4 -19 -1 -22 3 -3 5 1 5 8 0 9 5 7 15 -6 9 -12
14 -14 15 -6 0 8 5 10 13 6 7 -4 9 -3 4 2 -5 5 -14 9 -20 9 -7 1 -11 6 -9 13
3 18 -15 14 -22 -4z"/>
<path d="M2045 2040 c-3 -5 -1 -10 4 -10 6 0 11 5 11 10 0 6 -2 10 -4 10 -3 0
-8 -4 -11 -10z"/>
<path d="M2310 2043 c0 -6 7 -16 15 -23 9 -8 13 -21 10 -34 -5 -17 -4 -18 4
-6 11 16 14 10 14 -33 0 -13 3 -15 13 -6 11 9 10 15 -3 37 -29 46 -53 75 -53
65z"/>
<path d="M2693 1965 c0 -8 4 -12 9 -9 5 3 6 10 3 15 -9 13 -12 11 -12 -6z"/>
<path d="M2073 1915 c0 -8 5 -15 11 -15 6 0 4 -5 -4 -10 -13 -9 -12 -13 9 -30
23 -20 41 -19 41 3 0 7 -4 6 -10 -3 -9 -14 -14 -7 -11 13 1 5 -3 5 -9 2 -6 -4
-11 -1 -9 6 3 26 -1 49 -9 49 -5 0 -9 -7 -9 -15z"/>
<path d="M2404 1852 c3 -5 0 -13 -6 -15 -9 -4 -10 -6 -1 -6 17 -1 25 16 12 25
-7 4 -9 3 -5 -4z"/>
<path d="M2414 1776 c1 -8 5 -18 8 -22 4 -3 5 1 4 10 -1 8 -5 18 -8 22 -4 3
-5 -1 -4 -10z"/>
<path d="M1525 1770 c-4 -6 -11 -8 -16 -5 -5 4 -9 2 -9 -3 0 -5 11 -9 25 -9
25 0 33 11 16 22 -5 3 -12 1 -16 -5z"/>
<path d="M2142 1760 c7 -14 11 -28 10 -32 -1 -5 2 -8 7 -8 6 0 9 9 8 20 -1 10
-3 17 -6 15 -2 -3 -10 3 -18 13 -12 15 -13 14 -1 -8z"/>
<path d="M2990 1765 c-10 -12 -10 -15 3 -15 19 0 31 16 18 24 -5 3 -14 -1 -21
-9z"/>
<path d="M1630 1740 c0 -5 5 -10 11 -10 5 0 7 5 4 10 -3 6 -8 10 -11 10 -2 0
-4 -4 -4 -10z"/>
<path d="M1690 1740 c0 -5 5 -10 11 -10 5 0 7 5 4 10 -3 6 -8 10 -11 10 -2 0
-4 -4 -4 -10z"/>
<path d="M3015 1740 c-3 -5 -1 -10 4 -10 6 0 11 5 11 10 0 6 -2 10 -4 10 -3 0
-8 -4 -11 -10z"/>
<path d="M2447 1727 c-3 -8 0 -14 7 -14 7 0 13 6 13 14 0 7 -4 13 -8 13 -4 0
-9 -6 -12 -13z"/>
<path d="M1330 1715 c0 -8 4 -15 10 -15 5 0 7 7 4 15 -4 8 -8 15 -10 15 -2 0
-4 -7 -4 -15z"/>
<path d="M1746 1718 c3 -5 10 -6 15 -3 13 9 11 12 -6 12 -8 0 -12 -4 -9 -9z"/>
<path d="M2181 1714 c0 -11 3 -14 6 -6 3 7 2 16 -1 19 -3 4 -6 -2 -5 -13z"/>
<path d="M2461 1697 c2 -1 13 -9 24 -17 19 -14 19 -14 6 3 -7 9 -18 17 -24 17
-6 0 -8 -1 -6 -3z"/>
<path d="M2170 1680 c0 -5 9 -15 21 -23 15 -11 17 -16 7 -20 -9 -4 -9 -6 -1
-6 23 -2 21 14 -3 36 -13 12 -24 18 -24 13z"/>
<path d="M2196 1678 c3 -5 10 -6 15 -3 13 9 11 12 -6 12 -8 0 -12 -4 -9 -9z"/>
<path d="M1826 1638 c3 -4 12 -4 21 -1 12 5 14 3 8 -7 -5 -9 -4 -11 4 -6 16
10 4 25 -19 23 -10 -1 -17 -5 -14 -9z"/>
<path d="M2228 1616 c5 -11 17 -21 26 -22 9 -1 13 2 10 8 -3 5 -8 7 -12 4 -3
-3 -11 2 -19 12 -13 16 -14 16 -5 -2z"/>
<path d="M2493 1612 c-9 -15 -8 -19 3 -19 8 0 12 3 9 5 -3 3 0 11 6 19 6 7 7
13 3 13 -5 0 -14 -8 -21 -18z"/>
<path d="M1860 1610 c-9 -6 -10 -10 -3 -10 6 0 15 5 18 10 8 12 4 12 -15 0z"/>
<path d="M1150 1580 c0 -5 5 -10 11 -10 5 0 7 5 4 10 -3 6 -8 10 -11 10 -2 0
-4 -4 -4 -10z"/>
<path d="M1856 1581 c-4 -5 3 -7 14 -4 23 6 26 13 6 13 -8 0 -17 -4 -20 -9z"/>
<path d="M1890 1550 c0 -5 5 -10 11 -10 5 0 7 5 4 10 -3 6 -8 10 -11 10 -2 0
-4 -4 -4 -10z"/>
<path d="M1876 1518 c3 -5 10 -6 15 -3 13 9 11 12 -6 12 -8 0 -12 -4 -9 -9z"/>
<path d="M1910 1509 c0 -5 5 -7 10 -4 6 3 10 8 10 11 0 2 -4 4 -10 4 -5 0 -10
-5 -10 -11z"/>
<path d="M2535 1491 c-3 -5 -2 -12 3 -15 5 -3 9 1 9 9 0 17 -3 19 -12 6z"/>
<path d="M2565 1480 c1 -11 7 -26 13 -32 9 -9 10 -6 7 12 -6 31 -22 47 -20 20z"/>
<path d="M1906 1478 c3 -5 10 -6 15 -3 13 9 11 12 -6 12 -8 0 -12 -4 -9 -9z"/>
<path d="M2865 1470 c-3 -5 -1 -10 4 -10 6 0 11 5 11 10 0 6 -2 10 -4 10 -3 0
-8 -4 -11 -10z"/>
<path d="M2266 1461 c-7 -10 18 -34 27 -25 7 8 -3 34 -13 34 -5 0 -11 -4 -14
-9z"/>
<path d="M2856 1434 c-3 -9 -2 -23 2 -31 7 -11 9 -6 10 16 1 34 -3 39 -12 15z"/>
<path d="M2880 1439 c0 -5 5 -7 10 -4 6 3 10 8 10 11 0 2 -4 4 -10 4 -5 0 -10
-5 -10 -11z"/>
<path d="M1935 1420 c3 -5 13 -10 21 -10 8 0 12 -4 9 -10 -3 -5 -1 -10 4 -10
18 0 12 19 -8 30 -25 13 -34 13 -26 0z"/>
<path d="M1036 1402 c-2 -4 4 -13 15 -20 11 -7 19 -8 19 -2 0 5 -5 10 -11 10
-5 0 -7 5 -4 10 3 6 2 10 -4 10 -5 0 -12 -4 -15 -8z"/>
<path d="M2590 1406 c0 -3 11 -21 24 -41 14 -20 22 -43 19 -51 -3 -8 -1 -14 4
-14 21 0 21 14 -1 49 -13 20 -23 40 -24 46 -1 10 -22 21 -22 11z"/>
<path d="M2290 1365 c0 -7 30 -13 34 -7 3 4 -4 9 -15 9 -10 1 -19 0 -19 -2z"/>
<path d="M2596 1347 c3 -10 9 -15 12 -12 3 3 0 11 -7 18 -10 9 -11 8 -5 -6z"/>
<path d="M2835 1340 c3 -5 8 -10 11 -10 2 0 4 5 4 10 0 6 -5 10 -11 10 -5 0
-7 -4 -4 -10z"/>
<path d="M806 1311 c-3 -5 1 -11 9 -15 8 -3 15 -1 15 4 0 13 -18 22 -24 11z"/>
<path d="M710 1300 c0 -5 5 -10 11 -10 5 0 7 5 4 10 -3 6 -8 10 -11 10 -2 0
-4 -4 -4 -10z"/>
<path d="M2110 1298 c0 -4 4 -8 9 -8 6 0 12 4 15 8 3 5 -1 9 -9 9 -8 0 -15 -4
-15 -9z"/>
<path d="M2055 1280 c3 -5 8 -10 11 -10 2 0 4 5 4 10 0 6 -5 10 -11 10 -5 0
-7 -4 -4 -10z"/>
<path d="M3417 1184 c-1 -1 -148 -5 -327 -9 -507 -12 -810 -21 -990 -30 -47
-2 -152 -7 -235 -10 -82 -3 -184 -8 -225 -10 -41 -2 -129 -7 -195 -10 -66 -3
-151 -7 -190 -10 -38 -2 -117 -7 -175 -10 -58 -3 -130 -8 -160 -10 -30 -3
-107 -7 -170 -10 -63 -3 -131 -8 -150 -10 -19 -2 -89 -7 -155 -11 -105 -6
-139 -8 -192 -13 -9 -1 -13 -21 -13 -66 l0 -65 83 5 c188 11 256 15 337 20 47
3 123 7 170 10 99 6 240 13 395 20 61 3 153 7 205 10 99 6 202 10 430 20 74 3
182 7 240 10 58 2 184 7 280 10 96 3 225 8 285 10 195 8 823 23 993 24 l102 1
0 70 0 69 -171 -2 c-94 -1 -171 -3 -172 -3z"/>
</g>
</svg>
